<?xml version="1.0" encoding="UTF-8"?>
<svg id="Layer_1" data-name="Layer 1" xmlns="http://www.w3.org/2000/svg" viewBox="0 0 244.81 148.88">
  <defs>
    <style>
      .cls-1 {
        letter-spacing: .21em;
      }

      .cls-2 {
        letter-spacing: .21em;
      }

      .cls-3 {
        letter-spacing: .21em;
      }

      .cls-4 {
        letter-spacing: .03em;
      }

      .cls-5 {
        letter-spacing: .02em;
      }

      .cls-6 {
        fill: #ed2024;
      }

      .cls-7 {
        letter-spacing: 0em;
      }

      .cls-8 {
        stroke: #000;
        stroke-miterlimit: 10;
      }

      .cls-8, .cls-9 {
        fill: #ed1f24;
      }

      .cls-10 {
        letter-spacing: .03em;
      }

      .cls-11 {
        font-family: AcuminConcept-Semibold, 'Acumin Variable Concept';
        font-size: 29.01px;
        font-variation-settings: 'wght' 600, 'wdth' 100, 'slnt' 0;
        font-weight: 600;
      }

      .cls-9 {
        font-family: AcuminConcept-Bold, 'Acumin Variable Concept';
        font-size: 40.87px;
        font-variation-settings: 'wght' 700, 'wdth' 100, 'slnt' 0;
        font-weight: 700;
      }

      .cls-12 {
        letter-spacing: .02em;
      }

      .cls-13 {
        letter-spacing: .03em;
      }

      .cls-14 {
        letter-spacing: .02em;
      }

      .cls-15 {
        letter-spacing: .21em;
      }

      .cls-16 {
        letter-spacing: .03em;
      }
    </style>
  </defs>
  <polygon class="cls-6" points="0 77.16 0 130.28 13.61 130.28 13.61 64.66 0 77.16"/>
  <polygon class="cls-6" points="16.82 57.82 16.82 130.28 44.76 130.28 44.76 40.76 16.82 57.82"/>
  <polygon points="33.53 0 33.53 40.4 48.76 27.62 48.76 130.28 58.3 130.28 58.3 22.84 33.53 0"/>
  <polygon points="62.56 35.46 62.56 130.28 75.73 130.28 75.73 52.08 62.56 35.46"/>
  <text class="cls-9" transform="translate(80.92 94.71)"><tspan class="cls-15" x="0" y="0">H</tspan><tspan class="cls-3" x="38.83" y="0">A</tspan><tspan class="cls-1" x="75.33" y="0">F</tspan><tspan class="cls-2" x="108.11" y="0">I</tspan><tspan class="cls-15" x="129.36" y="0">Z</tspan></text>
  <text class="cls-11" transform="translate(80.92 130.01)"><tspan class="cls-14" x="0" y="0">B</tspan><tspan class="cls-10" x="19.87" y="0">R</tspan><tspan class="cls-7" x="39.71" y="0">O</tspan><tspan class="cls-5" x="62.05" y="0">T</tspan><tspan class="cls-13" x="79.54" y="0">H</tspan><tspan class="cls-12" x="101.74" y="0">E</tspan><tspan class="cls-4" x="120.13" y="0">R</tspan><tspan class="cls-16" x="140.09" y="0">S</tspan></text>
  <line class="cls-8" x1="83.81" y1="102.81" x2="234" y2="102.81"/>
</svg>